{"title":"FakeTaxi.Lucie.B.2014.xXx-BASTARD","uid":10678584,"size":558100154,"categoryP":"porn","categoryS":"movie_clips","magnet":"?xt=urn:btih:5b54a4496326ecdb90352f6179526946a01125e1&amp;dn=FakeTaxi.Lucie.B.2014.xXx-BASTARD&amp;tr=udp%3A%2F%2Ftracker.openbittorrent.com%3A80&amp;tr=udp%3A%2F%2Fopen.demonii.com%3A1337&amp;tr=udp%3A%2F%2Ftracker.coppersurfer.tk%3A6969&amp;tr=udp%3A%2F%2Fexodus.desync.com%3A6969","seeders":1,"leechers":0,"uploader":"iH2OSO4","files":-1,"time":1406998289,"description":"There is no such thing as a free ride, and these fake taxi drivers decided to capitalize. Join their intrepid, dangerous, provocative adventurers as they drive around looking to get sex for fares that they aren't even licensed to give\n\nGeneral\nComplete name       : FakeTaxi.Lucie.B.2014.xXx-BASTARD.mp4\n\nSource :     &lt;a href=&quot; http://vasileturcu.ro/i/9853875.html&quot; rel=&quot;nofollow&quot; target=&quot;_NEW&quot;&gt; http://vasileturcu.ro/i/9853875.html&lt;/a&gt;\n\n\nFormat                           : MPEG-4\nFormat profile                   : Base Media\nCodec ID                         : isom\nFile size                        : 532 MiB\nDuration                         : 34mn 15s\nOverall bit rate                 : 2 172 Kbps\nEncoded date                     : UTC 2014-08-02 07:39:35\nTagged date                      : UTC 2014-08-02 07:39:35\n\nVideo\nID                               : 1\nFormat                           : MPEG-4 Visual\nFormat profile                   : Simple@L1\nFormat settings, BVOP            : No\nFormat settings, QPel            : No\nFormat settings, GMC             : No warppoints\nFormat settings, Matrix          : Default (H.263)\nCodec ID                         : 20\nDuration                         : 34mn 15s\nBit rate mode                    : Variable\nBit rate                         : 2 037 Kbps\nMaximum bit rate                 : 6 653 Kbps\nWidth                            : 856 pixels\nHeight                           : 480 pixels\nDisplay aspect ratio             : 16:9\nFrame rate mode                  : Constant\nFrame rate                       : 24.000 fps\nColor space                      : YUV\nChroma subsampling               : 4:2:0\nBit depth                        : 8 bits\nScan type                        : Progressive\nCompression mode                 : Lossy\nBits/(Pixel*Frame)               : 0.207\nStream size                      : 499 MiB (94%)\nWriting library                  : Lavc53.8.0\nEncoded date                     : UTC 2014-08-02 07:39:35\nTagged date                      : UTC 2014-08-02 07:40:29\n\nAudio\nID                               : 2\nFormat                           : AAC\nFormat/Info                      : Advanced Audio Codec\nFormat profile                   : LC\nCodec ID                         : 40\nDuration                         : 34mn 15s\nBit rate mode                    : Variable\nBit rate                         : 132.3 Kbps\nMaximum bit rate                 : 159 Kbps\nChannel(s)                       : 2 channels\nChannel positions                : Front: L R\nSampling rate                    : 44.1 KHz\nCompression mode                 : Lossy\nStream size                      : 32.5 MiB (6%)\nEncoded date                     : UTC 2014-08-02 07:40:10\nTagged date                      : UTC 2014-08-02 07:40:29\n","torrent":{"xt":"urn:btih:5b54a4496326ecdb90352f6179526946a01125e1","amp;dn":"FakeTaxi.Lucie.B.2014.xXx-BASTARD","amp;tr":["udp%3A%2F%2Ftracker.openbittorrent.com%3A80","udp%3A%2F%2Fopen.demonii.com%3A1337","udp%3A%2F%2Ftracker.coppersurfer.tk%3A6969","udp%3A%2F%2Fexodus.desync.com%3A6969"],"infoHash":"5b54a4496326ecdb90352f6179526946a01125e1","infoHashBuffer":{"type":"Buffer","data":[91,84,164,73,99,38,236,219,144,53,47,97,121,82,105,70,160,17,37,225]},"announce":[],"urlList":[]}}